<?xml version="1.0" encoding="UTF-8"?>
<svg xmlns="http://www.w3.org/2000/svg" xmlns:xlink="http://www.w3.org/1999/xlink" width="16px" height="16px" viewBox="0 0 16 16" version="1.1">
<g id="surface1">
<path style=" stroke:none;fill-rule:nonzero;fill:rgb(100%,100%,100%);fill-opacity:1;" d="M 2 0 L 14 0 C 15.105469 0 16 0.894531 16 2 L 16 14 C 16 15.105469 15.105469 16 14 16 L 2 16 C 0.894531 16 0 15.105469 0 14 L 0 2 C 0 0.894531 0.894531 0 2 0 Z M 2 0 "/>
<path style=" stroke:none;fill-rule:nonzero;fill:rgb(14.509805%,95.686275%,93.333334%);fill-opacity:1;" d="M 6.925781 6.699219 L 6.925781 6.265625 C 6.777344 6.246094 6.625 6.230469 6.472656 6.230469 C 4.605469 6.230469 3.089844 7.75 3.089844 9.613281 C 3.089844 10.757812 3.664062 11.769531 4.535156 12.378906 C 3.972656 11.777344 3.625 10.96875 3.625 10.078125 C 3.625 8.242188 5.097656 6.742188 6.925781 6.699219 Z M 6.925781 6.699219 "/>
<path style=" stroke:none;fill-rule:nonzero;fill:rgb(14.509805%,95.686275%,93.333334%);fill-opacity:1;" d="M 7.007812 11.625 C 7.839844 11.625 8.515625 10.960938 8.546875 10.136719 L 8.550781 2.777344 L 9.894531 2.777344 C 9.867188 2.625 9.851562 2.46875 9.851562 2.3125 L 8.015625 2.3125 L 8.011719 9.671875 C 7.980469 10.496094 7.304688 11.15625 6.472656 11.15625 C 6.214844 11.15625 5.96875 11.09375 5.753906 10.980469 C 6.035156 11.367188 6.492188 11.625 7.007812 11.625 Z M 7.007812 11.625 "/>
<path style=" stroke:none;fill-rule:nonzero;fill:rgb(14.509805%,95.686275%,93.333334%);fill-opacity:1;" d="M 12.40625 5.273438 L 12.40625 4.867188 C 11.894531 4.867188 11.417969 4.714844 11.015625 4.453125 C 11.371094 4.863281 11.855469 5.15625 12.40625 5.273438 Z M 12.40625 5.273438 "/>
<path style=" stroke:none;fill-rule:nonzero;fill:rgb(99.607843%,17.254902%,33.333334%);fill-opacity:1;" d="M 11.015625 4.453125 C 10.625 4.003906 10.386719 3.417969 10.386719 2.777344 L 9.894531 2.777344 C 10.023438 3.476562 10.441406 4.078125 11.015625 4.453125 Z M 11.015625 4.453125 "/>
<path style=" stroke:none;fill-rule:nonzero;fill:rgb(99.607843%,17.254902%,33.333334%);fill-opacity:1;" d="M 6.472656 8.070312 C 5.621094 8.070312 4.925781 8.761719 4.925781 9.613281 C 4.925781 10.207031 5.265625 10.722656 5.753906 10.980469 C 5.570312 10.726562 5.460938 10.414062 5.460938 10.078125 C 5.460938 9.226562 6.15625 8.535156 7.007812 8.535156 C 7.164062 8.535156 7.316406 8.5625 7.460938 8.605469 L 7.460938 6.730469 C 7.3125 6.710938 7.160156 6.699219 7.007812 6.699219 C 6.980469 6.699219 6.953125 6.699219 6.925781 6.699219 L 6.925781 8.140625 C 6.78125 8.09375 6.628906 8.070312 6.472656 8.070312 Z M 6.472656 8.070312 "/>
<path style=" stroke:none;fill-rule:nonzero;fill:rgb(99.607843%,17.254902%,33.333334%);fill-opacity:1;" d="M 12.40625 5.273438 L 12.40625 6.703125 C 11.453125 6.703125 10.574219 6.398438 9.851562 5.882812 L 9.851562 9.613281 C 9.851562 11.476562 8.335938 12.992188 6.472656 12.992188 C 5.75 12.992188 5.082031 12.765625 4.535156 12.382812 C 5.152344 13.042969 6.03125 13.460938 7.007812 13.460938 C 8.871094 13.460938 10.386719 11.945312 10.386719 10.078125 L 10.386719 6.347656 C 11.109375 6.863281 11.992188 7.167969 12.941406 7.167969 L 12.941406 5.332031 C 12.757812 5.332031 12.578125 5.3125 12.40625 5.273438 Z M 12.40625 5.273438 "/>
<path style=" stroke:none;fill-rule:nonzero;fill:rgb(0%,0%,0%);fill-opacity:1;" d="M 9.851562 9.613281 L 9.851562 5.878906 C 10.574219 6.398438 11.453125 6.703125 12.40625 6.703125 L 12.40625 5.273438 C 11.855469 5.15625 11.371094 4.863281 11.015625 4.453125 C 10.441406 4.078125 10.023438 3.476562 9.894531 2.777344 L 8.550781 2.777344 L 8.546875 10.136719 C 8.515625 10.960938 7.839844 11.621094 7.007812 11.621094 C 6.492188 11.621094 6.035156 11.367188 5.753906 10.980469 C 5.261719 10.71875 4.925781 10.207031 4.925781 9.613281 C 4.925781 8.761719 5.621094 8.070312 6.472656 8.070312 C 6.628906 8.070312 6.78125 8.09375 6.925781 8.140625 L 6.925781 6.699219 C 5.101562 6.742188 3.625 8.242188 3.625 10.078125 C 3.625 10.96875 3.972656 11.777344 4.535156 12.378906 C 5.082031 12.765625 5.75 12.992188 6.472656 12.992188 C 8.335938 12.992188 9.851562 11.476562 9.851562 9.613281 Z M 9.851562 9.613281 "/>
</g>
</svg>
