<?xml version="1.0" standalone="no"?>
<!DOCTYPE svg PUBLIC "-//W3C//DTD SVG 20010904//EN"
 "http://www.w3.org/TR/2001/REC-SVG-20010904/DTD/svg10.dtd">
<svg version="1.0" xmlns="http://www.w3.org/2000/svg"
 width="290.000000pt" height="290.000000pt" viewBox="0 0 290.000000 290.000000"
 preserveAspectRatio="xMidYMid meet">
<metadata>
Created by potrace 1.14, written by Peter Selinger 2001-2017
</metadata>
<g transform="translate(0.000000,290.000000) scale(0.100000,-0.100000)"
fill="#000000" stroke="none">
<path d="M150 2722 l0 -29 118 -6 c155 -8 242 -34 298 -91 71 -71 69 -33 69
-1156 0 -911 -1 -1000 -17 -1050 -10 -31 -30 -67 -45 -82 -64 -61 -193 -98
-345 -98 l-78 0 0 -30 0 -30 730 0 730 0 0 30 0 30 -69 0 c-165 0 -286 32
-349 93 -64 62 -66 80 -70 600 l-3 468 33 -6 c242 -43 631 -57 821 -31 347 49
594 193 711 415 52 99 69 184 63 311 -6 157 -56 263 -176 378 -185 177 -438
271 -816 302 -66 5 -454 10 -862 10 l-743 0 0 -28z m1545 -152 c200 -51 345
-159 419 -312 40 -84 66 -185 66 -264 0 -68 -34 -197 -67 -253 -67 -114 -201
-217 -348 -267 -107 -36 -264 -43 -465 -20 -80 9 -153 19 -162 22 -17 5 -18
40 -18 544 0 531 0 539 20 545 11 4 66 13 123 20 136 19 327 12 432 -15z"/>
</g>
</svg>
